<?xml version="1.0" encoding="UTF-8"?>
<svg xmlns="http://www.w3.org/2000/svg" xmlns:xlink="http://www.w3.org/1999/xlink" width="283.589996pt" height="215.330002pt" viewBox="0 0 283.589996 215.330002" version="1.1">
<defs>
<clipPath id="clip1">
  <path d="M 48 102 L 241 102 L 241 215.328125 L 48 215.328125 Z M 48 102 "/>
</clipPath>
<clipPath id="clip2">
  <path d="M 203 81 L 283.589844 81 L 283.589844 134 L 203 134 Z M 203 81 "/>
</clipPath>
<clipPath id="clip3">
  <path d="M 275 164 L 283.589844 164 L 283.589844 176 L 275 176 Z M 275 164 "/>
</clipPath>
</defs>
<g id="surface1">
<g clip-path="url(#clip1)" clip-rule="nonzero">
<path style=" stroke:none;fill-rule:nonzero;fill:rgb(84.312439%,84.312439%,84.312439%);fill-opacity:1;" d="M 64.28125 170.164062 L 64.449219 188.664062 L 48.28125 203.828125 L 48.28125 207.996094 L 85.449219 207.996094 L 100.613281 197.664062 L 101.113281 208.996094 L 111.445312 211.328125 L 120.445312 189.996094 C 120.445312 189.996094 129.113281 190.660156 131.28125 190.496094 L 132.945312 215.328125 L 145.945312 215.164062 L 149.613281 191.828125 C 149.613281 191.828125 158.613281 191.160156 159.445312 190.996094 L 165.613281 213.996094 L 177.945312 212.664062 L 178.113281 187.828125 C 178.113281 187.828125 186.945312 186.328125 187.28125 186.164062 L 199.945312 206.828125 L 211.28125 201.328125 L 207.113281 180.164062 L 214.28125 175.664062 L 230.78125 192.996094 L 240.445312 186.164062 L 231.113281 164.328125 L 238.945312 156.828125 L 224.945312 141.496094 C 224.945312 141.496094 180.28125 176.664062 135.449219 168.496094 L 204.28125 113.328125 L 193.78125 102.664062 L 69.28125 202.996094 L 68.949219 170.164062 L 87.78125 170.164062 L 149.113281 120.996094 L 103.613281 120.996094 L 48.78125 165.328125 L 48.78125 170.082031 L 64.28125 170.164062 "/>
</g>
<path style=" stroke:none;fill-rule:nonzero;fill:rgb(84.312439%,84.312439%,84.312439%);fill-opacity:1;" d="M 178.542969 97.675781 L 185.550781 91.957031 L 205.6875 93.164062 L 199.324219 98.320312 L 178.542969 97.675781 "/>
<path style=" stroke:none;fill-rule:nonzero;fill:rgb(84.312439%,84.312439%,84.312439%);fill-opacity:1;" d="M 236.613281 82.777344 L 236.535156 87.691406 L 227.511719 94.859375 L 205.6875 93.164062 L 219.054688 82.859375 L 236.613281 82.777344 "/>
<path style=" stroke:none;fill-rule:nonzero;fill:rgb(84.312439%,84.312439%,84.312439%);fill-opacity:1;" d="M 242.976562 45.730469 L 197.148438 45.570312 L 176.769531 61.996094 L 194.007812 84.871094 L 218.53125 65.269531 L 218.53125 68.953125 L 219.90625 68.953125 L 219.90625 64.171875 L 242.976562 45.730469 "/>
<path style=" stroke:none;fill-rule:nonzero;fill:rgb(84.312439%,84.312439%,84.312439%);fill-opacity:1;" d="M 143.613281 88.820312 L 185.550781 91.957031 L 163.78125 72.828125 Z M 143.613281 88.820312 "/>
<path style=" stroke:none;fill-rule:nonzero;fill:rgb(84.312439%,84.312439%,84.312439%);fill-opacity:1;" d="M 178.113281 97.578125 L 149.113281 120.996094 L 130.28125 99.578125 L 134.613281 96.078125 L 178.113281 97.578125 "/>
<path style=" stroke:none;fill-rule:nonzero;fill:rgb(84.312439%,84.312439%,84.312439%);fill-opacity:1;" d="M 122.613281 105.328125 L 130.28125 99.578125 L 126.945312 95.746094 L 134.613281 96.078125 L 143.613281 88.820312 L 108.613281 86.414062 L 122.613281 105.328125 "/>
<path style=" stroke:none;fill-rule:nonzero;fill:rgb(84.312439%,84.312439%,84.312439%);fill-opacity:1;" d="M 116.03125 111.078125 L 127.28125 111.914062 L 122.613281 105.328125 Z M 116.03125 111.078125 "/>
<path style=" stroke:none;fill-rule:nonzero;fill:rgb(84.312439%,84.312439%,84.312439%);fill-opacity:1;" d="M 67.363281 121.414062 L 103.613281 120.996094 L 116.03125 111.078125 L 79.199219 109.664062 L 67.363281 121.414062 "/>
<path style=" stroke:none;fill-rule:nonzero;fill:rgb(84.312439%,84.312439%,84.312439%);fill-opacity:1;" d="M 58.949219 121.828125 L 67.363281 121.414062 L 37.363281 146.164062 Z M 58.949219 121.828125 "/>
<path style=" stroke:none;fill-rule:nonzero;fill:rgb(84.312439%,84.312439%,84.312439%);fill-opacity:1;" d="M 30.53125 107.414062 L 40.03125 121.996094 L 58.949219 121.828125 L 70.78125 109.246094 L 30.53125 107.414062 "/>
<path style=" stroke:none;fill-rule:nonzero;fill:rgb(84.312439%,84.312439%,84.312439%);fill-opacity:1;" d="M 138.992188 50.722656 L 141.167969 59.582031 L 143.539062 57.066406 L 153.925781 67.144531 C 151.371094 68.230469 148.5625 68.828125 145.613281 68.828125 C 134.085938 68.828125 124.714844 59.640625 124.320312 48.164062 L 133.113281 48.164062 L 133.113281 55.828125 L 137.28125 55.828125 L 137.28125 44.046875 L 156.191406 28.832031 C 162.613281 32.523438 166.949219 39.453125 166.949219 47.414062 C 166.949219 55.367188 162.621094 62.289062 156.210938 65.984375 L 145.199219 55.300781 L 147.691406 52.65625 Z M 145.613281 25.996094 C 148.519531 25.996094 151.285156 26.585938 153.808594 27.640625 L 137.28125 40.9375 L 137.28125 36.496094 L 133.113281 36.496094 L 133.113281 45.164062 L 124.402344 45.164062 C 125.523438 34.394531 134.589844 25.996094 145.613281 25.996094 Z M 176.769531 61.996094 L 170.25 54.453125 C 170.917969 52.21875 171.28125 49.859375 171.28125 47.414062 C 171.28125 35.632812 162.96875 25.765625 151.78125 23.117188 L 151.78125 -0.00390625 L 140.78125 -0.00390625 L 140.78125 22.898438 C 129.09375 25.175781 120.28125 35.285156 120.28125 47.414062 C 120.28125 49.171875 120.46875 50.890625 120.820312 52.542969 L 70.78125 108.539062 L 80.78125 109.664062 L 130.863281 67.683594 C 135.058594 70.65625 140.210938 72.414062 145.78125 72.414062 C 150.429688 72.414062 154.785156 71.1875 158.542969 69.054688 L 163.695312 72.414062 L 176.769531 61.996094 "/>
<path style=" stroke:none;fill-rule:nonzero;fill:rgb(84.312439%,84.312439%,84.312439%);fill-opacity:1;" d="M 204.28125 113.328125 L 211.445312 107.828125 L 218.613281 117.328125 L 221.152344 115.996094 L 225.945312 123.496094 L 224.945312 124.996094 L 242.113281 146.664062 L 242.40625 154.164062 L 204.28125 113.328125 "/>
<path style=" stroke:none;fill-rule:nonzero;fill:rgb(84.312439%,84.312439%,84.312439%);fill-opacity:1;" d="M 204.28125 98.320312 L 222.78125 99.078125 L 211.445312 107.828125 Z M 204.28125 98.320312 "/>
<path style=" stroke:none;fill-rule:nonzero;fill:rgb(84.312439%,84.312439%,84.312439%);fill-opacity:1;" d="M 236.613281 99.578125 L 242.976562 99.578125 L 243.53125 103.074219 L 261.28125 98.320312 L 243.65625 91.957031 L 243.65625 95.828125 L 234.78125 94.921875 L 236.613281 99.578125 "/>
<path style=" stroke:none;fill-rule:nonzero;fill:rgb(16.078186%,23.529053%,52.548218%);fill-opacity:1;" d="M 15.460938 111.582031 L 15.460938 120.460938 L 53.976562 120.460938 L 53.976562 133.84375 L 0.386719 133.84375 L 0.386719 81.484375 L 53.976562 81.484375 L 53.976562 93.234375 L 15.460938 93.234375 L 15.460938 100.742188 L 50.78125 100.742188 L 50.78125 111.582031 L 15.460938 111.582031 "/>
<path style=" stroke:none;fill-rule:nonzero;fill:rgb(16.078186%,23.529053%,52.548218%);fill-opacity:1;" d="M 76.769531 107.992188 C 76.773438 111.203125 76.785156 115.746094 76.800781 115.882812 C 77.089844 118.476562 79.226562 120.523438 85.382812 120.523438 L 120.703125 120.523438 L 120.703125 133.84375 L 80.511719 133.84375 C 68.613281 133.84375 61.734375 130.097656 61.3125 122.613281 C 61.304688 122.476562 61.296875 114.898438 61.292969 108.054688 L 61.292969 107.273438 C 61.296875 100.429688 61.304688 92.851562 61.3125 92.714844 C 61.734375 85.226562 68.613281 81.484375 80.511719 81.484375 L 117.699219 81.484375 L 117.699219 94.804688 L 85.382812 94.804688 C 79.226562 94.804688 77.089844 96.851562 76.800781 99.441406 C 76.785156 99.582031 76.773438 104.121094 76.769531 107.335938 L 76.769531 107.992188 "/>
<path style=" stroke:none;fill-rule:nonzero;fill:rgb(16.078186%,23.529053%,52.548218%);fill-opacity:1;" d="M 170.101562 109.828125 L 162.226562 95 L 154.199219 109.921875 Z M 147.121094 123.082031 L 141.59375 133.84375 L 123.988281 133.84375 L 153.347656 81.484375 L 171.234375 81.484375 L 200.613281 133.84375 L 182.59375 133.84375 L 177.109375 123.027344 L 147.121094 123.082031 "/>
<g clip-path="url(#clip2)" clip-rule="nonzero">
<path style=" stroke:none;fill-rule:nonzero;fill:rgb(16.078186%,23.529053%,52.548218%);fill-opacity:1;" d="M 203.75 81.484375 L 227.121094 81.484375 L 243.445312 112.496094 L 259.765625 81.484375 L 283.136719 81.484375 L 283.136719 133.84375 L 267.730469 133.84375 L 267.601562 100.742188 L 250.363281 133.84375 L 236.523438 133.84375 L 219.285156 100.742188 L 219.285156 133.84375 L 203.75 133.84375 L 203.75 81.484375 "/>
</g>
<path style=" stroke:none;fill-rule:nonzero;fill:rgb(16.078186%,23.529053%,52.548218%);fill-opacity:1;" d="M 5.230469 173.945312 C 6.582031 173.945312 7.398438 173.414062 7.398438 172.402344 L 7.398438 172.371094 C 7.398438 171.421875 6.644531 170.859375 5.082031 170.859375 L 1.945312 170.859375 L 1.945312 173.945312 Z M 4.648438 169.183594 C 5.921875 169.183594 6.773438 168.6875 6.773438 167.65625 L 6.773438 167.625 C 6.773438 166.738281 6.0625 166.191406 4.792969 166.191406 L 1.945312 166.191406 L 1.945312 169.183594 Z M 0 164.4375 L 5.050781 164.4375 C 6.339844 164.4375 7.351562 164.792969 7.996094 165.4375 C 8.492188 165.9375 8.75 166.546875 8.75 167.304688 L 8.75 167.335938 C 8.75 168.6875 7.980469 169.410156 7.144531 169.84375 C 8.460938 170.292969 9.378906 171.050781 9.378906 172.578125 L 9.378906 172.609375 C 9.378906 174.621094 7.722656 175.699219 5.210938 175.699219 L 0 175.699219 L 0 164.4375 "/>
<path style=" stroke:none;fill-rule:nonzero;fill:rgb(16.078186%,23.529053%,52.548218%);fill-opacity:1;" d="M 16.484375 170.023438 C 17.902344 170.023438 18.800781 169.28125 18.800781 168.140625 L 18.800781 168.105469 C 18.800781 166.902344 17.933594 166.242188 16.46875 166.242188 L 13.589844 166.242188 L 13.589844 170.023438 Z M 11.609375 164.4375 L 16.628906 164.4375 C 18.042969 164.4375 19.15625 164.855469 19.878906 165.566406 C 20.472656 166.175781 20.8125 167.011719 20.8125 167.992188 L 20.8125 168.027344 C 20.8125 169.875 19.703125 170.984375 18.125 171.4375 L 21.164062 175.699219 L 18.835938 175.699219 L 16.066406 171.773438 L 13.589844 171.773438 L 13.589844 175.699219 L 11.609375 175.699219 L 11.609375 164.4375 "/>
<path style=" stroke:none;fill-rule:nonzero;fill:rgb(16.078186%,23.529053%,52.548218%);fill-opacity:1;" d="M 23.058594 170.921875 L 23.058594 164.4375 L 25.039062 164.4375 L 25.039062 170.84375 C 25.039062 172.933594 26.117188 174.058594 27.886719 174.058594 C 29.640625 174.058594 30.71875 172.996094 30.71875 170.921875 L 30.71875 164.4375 L 32.695312 164.4375 L 32.695312 170.824219 C 32.695312 174.1875 30.796875 175.875 27.855469 175.875 C 24.925781 175.875 23.058594 174.1875 23.058594 170.921875 "/>
<path style=" stroke:none;fill-rule:nonzero;fill:rgb(16.078186%,23.529053%,52.548218%);fill-opacity:1;" d="M 34.65625 174.058594 L 35.84375 172.644531 C 36.921875 173.578125 38 174.109375 39.398438 174.109375 C 40.621094 174.109375 41.394531 173.542969 41.394531 172.691406 L 41.394531 172.660156 C 41.394531 171.855469 40.945312 171.421875 38.851562 170.9375 C 36.457031 170.359375 35.105469 169.652344 35.105469 167.574219 L 35.105469 167.542969 C 35.105469 165.613281 36.714844 164.277344 38.949219 164.277344 C 40.589844 164.277344 41.894531 164.777344 43.035156 165.695312 L 41.972656 167.191406 C 40.960938 166.433594 39.945312 166.03125 38.917969 166.03125 C 37.757812 166.03125 37.082031 166.625 37.082031 167.367188 L 37.082031 167.398438 C 37.082031 168.269531 37.597656 168.652344 39.753906 169.167969 C 42.132812 169.746094 43.375 170.601562 43.375 172.46875 L 43.375 172.5 C 43.375 174.605469 41.714844 175.859375 39.351562 175.859375 C 37.628906 175.859375 36.007812 175.265625 34.65625 174.058594 "/>
<path style=" stroke:none;fill-rule:nonzero;fill:rgb(16.078186%,23.529053%,52.548218%);fill-opacity:1;" d="M 44.785156 174.058594 L 45.976562 172.644531 C 47.054688 173.578125 48.132812 174.109375 49.53125 174.109375 C 50.753906 174.109375 51.527344 173.542969 51.527344 172.691406 L 51.527344 172.660156 C 51.527344 171.855469 51.074219 171.421875 48.984375 170.9375 C 46.585938 170.359375 45.234375 169.652344 45.234375 167.574219 L 45.234375 167.542969 C 45.234375 165.613281 46.84375 164.277344 49.082031 164.277344 C 50.722656 164.277344 52.023438 164.777344 53.167969 165.695312 L 52.105469 167.191406 C 51.09375 166.433594 50.078125 166.03125 49.046875 166.03125 C 47.890625 166.03125 47.214844 166.625 47.214844 167.367188 L 47.214844 167.398438 C 47.214844 168.269531 47.730469 168.652344 49.886719 169.167969 C 52.265625 169.746094 53.503906 170.601562 53.503906 172.46875 L 53.503906 172.5 C 53.503906 174.605469 51.847656 175.859375 49.484375 175.859375 C 47.761719 175.859375 46.136719 175.265625 44.785156 174.058594 "/>
<path style=" stroke:none;fill-rule:nonzero;fill:rgb(16.078186%,23.529053%,52.548218%);fill-opacity:1;" d="M 55.832031 164.4375 L 64.183594 164.4375 L 64.183594 166.207031 L 57.8125 166.207031 L 57.8125 169.136719 L 63.457031 169.136719 L 63.457031 170.90625 L 57.8125 170.90625 L 57.8125 173.929688 L 64.265625 173.929688 L 64.265625 175.699219 L 55.832031 175.699219 L 55.832031 164.4375 "/>
<path style=" stroke:none;fill-rule:nonzero;fill:rgb(16.078186%,23.529053%,52.548218%);fill-opacity:1;" d="M 66.605469 164.4375 L 68.585938 164.4375 L 68.585938 173.898438 L 74.507812 173.898438 L 74.507812 175.699219 L 66.605469 175.699219 L 66.605469 164.4375 "/>
<path style=" stroke:none;fill-rule:nonzero;fill:rgb(16.078186%,23.529053%,52.548218%);fill-opacity:1;" d="M 75.804688 174.058594 L 76.996094 172.644531 C 78.074219 173.578125 79.152344 174.109375 80.550781 174.109375 C 81.773438 174.109375 82.542969 173.542969 82.542969 172.691406 L 82.542969 172.660156 C 82.542969 171.855469 82.097656 171.421875 80.003906 170.9375 C 77.605469 170.359375 76.253906 169.652344 76.253906 167.574219 L 76.253906 167.542969 C 76.253906 165.613281 77.863281 164.277344 80.101562 164.277344 C 81.742188 164.277344 83.042969 164.777344 84.1875 165.695312 L 83.125 167.191406 C 82.109375 166.433594 81.097656 166.03125 80.066406 166.03125 C 78.910156 166.03125 78.234375 166.625 78.234375 167.367188 L 78.234375 167.398438 C 78.234375 168.269531 78.75 168.652344 80.90625 169.167969 C 83.285156 169.746094 84.523438 170.601562 84.523438 172.46875 L 84.523438 172.5 C 84.523438 174.605469 82.867188 175.859375 80.503906 175.859375 C 78.78125 175.859375 77.15625 175.265625 75.804688 174.058594 "/>
<path style=" stroke:none;fill-rule:nonzero;fill:rgb(16.078186%,23.529053%,52.548218%);fill-opacity:1;" d="M 91.675781 164.4375 L 100.027344 164.4375 L 100.027344 166.207031 L 93.65625 166.207031 L 93.65625 169.136719 L 99.300781 169.136719 L 99.300781 170.90625 L 93.65625 170.90625 L 93.65625 173.929688 L 100.109375 173.929688 L 100.109375 175.699219 L 91.675781 175.699219 L 91.675781 164.4375 "/>
<path style=" stroke:none;fill-rule:nonzero;fill:rgb(16.078186%,23.529053%,52.548218%);fill-opacity:1;" d="M 102.449219 164.4375 L 104.285156 164.4375 L 110.316406 172.226562 L 110.316406 164.4375 L 112.265625 164.4375 L 112.265625 175.699219 L 110.609375 175.699219 L 104.398438 167.6875 L 104.398438 175.699219 L 102.449219 175.699219 L 102.449219 164.4375 "/>
<path style=" stroke:none;fill-rule:nonzero;fill:rgb(16.078186%,23.529053%,52.548218%);fill-opacity:1;" d="M 114.65625 170.101562 L 114.65625 170.070312 C 114.65625 166.914062 117.070312 164.246094 120.464844 164.246094 C 122.429688 164.246094 123.632812 164.792969 124.792969 165.773438 L 123.539062 167.269531 C 122.671875 166.53125 121.816406 166.0625 120.382812 166.0625 C 118.308594 166.0625 116.734375 167.882812 116.734375 170.035156 L 116.734375 170.070312 C 116.734375 172.386719 118.261719 174.09375 120.5625 174.09375 C 121.621094 174.09375 122.589844 173.753906 123.28125 173.238281 L 123.28125 171.132812 L 120.402344 171.132812 L 120.402344 169.410156 L 125.195312 169.410156 L 125.195312 174.140625 C 124.085938 175.089844 122.492188 175.894531 120.496094 175.894531 C 116.972656 175.894531 114.65625 173.382812 114.65625 170.101562 "/>
<path style=" stroke:none;fill-rule:nonzero;fill:rgb(16.078186%,23.529053%,52.548218%);fill-opacity:1;" d="M 127.878906 164.4375 L 129.855469 164.4375 L 129.855469 175.699219 L 127.878906 175.699219 Z M 127.878906 164.4375 "/>
<path style=" stroke:none;fill-rule:nonzero;fill:rgb(16.078186%,23.529053%,52.548218%);fill-opacity:1;" d="M 132.859375 164.4375 L 134.695312 164.4375 L 140.726562 172.226562 L 140.726562 164.4375 L 142.675781 164.4375 L 142.675781 175.699219 L 141.015625 175.699219 L 134.808594 167.6875 L 134.808594 175.699219 L 132.859375 175.699219 L 132.859375 164.4375 "/>
<path style=" stroke:none;fill-rule:nonzero;fill:rgb(16.078186%,23.529053%,52.548218%);fill-opacity:1;" d="M 145.566406 164.4375 L 153.914062 164.4375 L 153.914062 166.207031 L 147.546875 166.207031 L 147.546875 169.136719 L 153.191406 169.136719 L 153.191406 170.90625 L 147.546875 170.90625 L 147.546875 173.929688 L 153.996094 173.929688 L 153.996094 175.699219 L 145.566406 175.699219 L 145.566406 164.4375 "/>
<path style=" stroke:none;fill-rule:nonzero;fill:rgb(16.078186%,23.529053%,52.548218%);fill-opacity:1;" d="M 156.339844 164.4375 L 164.6875 164.4375 L 164.6875 166.207031 L 158.316406 166.207031 L 158.316406 169.136719 L 163.964844 169.136719 L 163.964844 170.90625 L 158.316406 170.90625 L 158.316406 173.929688 L 164.769531 173.929688 L 164.769531 175.699219 L 156.339844 175.699219 L 156.339844 164.4375 "/>
<path style=" stroke:none;fill-rule:nonzero;fill:rgb(16.078186%,23.529053%,52.548218%);fill-opacity:1;" d="M 171.988281 170.023438 C 173.402344 170.023438 174.304688 169.28125 174.304688 168.140625 L 174.304688 168.105469 C 174.304688 166.902344 173.4375 166.242188 171.972656 166.242188 L 169.09375 166.242188 L 169.09375 170.023438 Z M 167.113281 164.4375 L 172.132812 164.4375 C 173.550781 164.4375 174.660156 164.855469 175.382812 165.566406 C 175.976562 166.175781 176.316406 167.011719 176.316406 167.992188 L 176.316406 168.027344 C 176.316406 169.875 175.207031 170.984375 173.628906 171.4375 L 176.671875 175.699219 L 174.339844 175.699219 L 171.570312 171.773438 L 169.09375 171.773438 L 169.09375 175.699219 L 167.113281 175.699219 L 167.113281 164.4375 "/>
<path style=" stroke:none;fill-rule:nonzero;fill:rgb(16.078186%,23.529053%,52.548218%);fill-opacity:1;" d="M 178.851562 164.4375 L 180.832031 164.4375 L 180.832031 175.699219 L 178.851562 175.699219 Z M 178.851562 164.4375 "/>
<path style=" stroke:none;fill-rule:nonzero;fill:rgb(16.078186%,23.529053%,52.548218%);fill-opacity:1;" d="M 183.839844 164.4375 L 185.671875 164.4375 L 191.703125 172.226562 L 191.703125 164.4375 L 193.652344 164.4375 L 193.652344 175.699219 L 191.992188 175.699219 L 185.785156 167.6875 L 185.785156 175.699219 L 183.839844 175.699219 L 183.839844 164.4375 "/>
<path style=" stroke:none;fill-rule:nonzero;fill:rgb(16.078186%,23.529053%,52.548218%);fill-opacity:1;" d="M 196.042969 170.101562 L 196.042969 170.070312 C 196.042969 166.914062 198.457031 164.246094 201.851562 164.246094 C 203.8125 164.246094 205.019531 164.792969 206.175781 165.773438 L 204.925781 167.269531 C 204.054688 166.53125 203.203125 166.0625 201.769531 166.0625 C 199.695312 166.0625 198.117188 167.882812 198.117188 170.035156 L 198.117188 170.070312 C 198.117188 172.386719 199.648438 174.09375 201.945312 174.09375 C 203.007812 174.09375 203.972656 173.753906 204.664062 173.238281 L 204.664062 171.132812 L 201.785156 171.132812 L 201.785156 169.410156 L 206.578125 169.410156 L 206.578125 174.140625 C 205.46875 175.089844 203.878906 175.894531 201.882812 175.894531 C 198.359375 175.894531 196.042969 173.382812 196.042969 170.101562 "/>
<path style=" stroke:none;fill-rule:nonzero;fill:rgb(16.078186%,23.529053%,52.548218%);fill-opacity:1;" d="M 213.21875 174.058594 L 214.40625 172.644531 C 215.484375 173.578125 216.5625 174.109375 217.964844 174.109375 C 219.1875 174.109375 219.957031 173.542969 219.957031 172.691406 L 219.957031 172.660156 C 219.957031 171.855469 219.507812 171.421875 217.414062 170.9375 C 215.019531 170.359375 213.667969 169.652344 213.667969 167.574219 L 213.667969 167.542969 C 213.667969 165.613281 215.277344 164.277344 217.511719 164.277344 C 219.152344 164.277344 220.457031 164.777344 221.597656 165.695312 L 220.539062 167.191406 C 219.523438 166.433594 218.507812 166.03125 217.480469 166.03125 C 216.320312 166.03125 215.644531 166.625 215.644531 167.367188 L 215.644531 167.398438 C 215.644531 168.269531 216.160156 168.652344 218.316406 169.167969 C 220.695312 169.746094 221.9375 170.601562 221.9375 172.46875 L 221.9375 172.5 C 221.9375 174.605469 220.277344 175.859375 217.914062 175.859375 C 216.191406 175.859375 214.570312 175.265625 213.21875 174.058594 "/>
<path style=" stroke:none;fill-rule:nonzero;fill:rgb(16.078186%,23.529053%,52.548218%);fill-opacity:1;" d="M 223.765625 170.101562 L 223.765625 170.070312 C 223.765625 166.867188 226.164062 164.246094 229.574219 164.246094 C 231.648438 164.246094 232.902344 164.96875 233.980469 166 L 232.710938 167.464844 C 231.808594 166.625 230.84375 166.0625 229.558594 166.0625 C 227.402344 166.0625 225.839844 167.832031 225.839844 170.035156 L 225.839844 170.070312 C 225.839844 172.273438 227.402344 174.074219 229.558594 174.074219 C 230.941406 174.074219 231.828125 173.511719 232.792969 172.609375 L 234.0625 173.898438 C 232.886719 175.121094 231.601562 175.894531 229.492188 175.894531 C 226.210938 175.894531 223.765625 173.335938 223.765625 170.101562 "/>
<path style=" stroke:none;fill-rule:nonzero;fill:rgb(16.078186%,23.529053%,52.548218%);fill-opacity:1;" d="M 236.132812 164.4375 L 238.109375 164.4375 L 238.109375 169.121094 L 243.484375 169.121094 L 243.484375 164.4375 L 245.464844 164.4375 L 245.464844 175.699219 L 243.484375 175.699219 L 243.484375 170.953125 L 238.109375 170.953125 L 238.109375 175.699219 L 236.132812 175.699219 L 236.132812 164.4375 "/>
<path style=" stroke:none;fill-rule:nonzero;fill:rgb(16.078186%,23.529053%,52.548218%);fill-opacity:1;" d="M 257.558594 170.101562 L 257.558594 170.070312 C 257.558594 167.882812 255.964844 166.0625 253.726562 166.0625 C 251.492188 166.0625 249.929688 167.851562 249.929688 170.035156 L 249.929688 170.070312 C 249.929688 172.257812 251.523438 174.074219 253.757812 174.074219 C 255.996094 174.074219 257.558594 172.289062 257.558594 170.101562 Z M 247.855469 170.101562 L 247.855469 170.070312 C 247.855469 166.902344 250.300781 164.246094 253.757812 164.246094 C 257.21875 164.246094 259.632812 166.867188 259.632812 170.035156 L 259.632812 170.070312 C 259.632812 173.238281 257.1875 175.894531 253.726562 175.894531 C 250.269531 175.894531 247.855469 173.269531 247.855469 170.101562 "/>
<path style=" stroke:none;fill-rule:nonzero;fill:rgb(16.078186%,23.529053%,52.548218%);fill-opacity:1;" d="M 271.226562 170.101562 L 271.226562 170.070312 C 271.226562 167.882812 269.632812 166.0625 267.398438 166.0625 C 265.160156 166.0625 263.597656 167.851562 263.597656 170.035156 L 263.597656 170.070312 C 263.597656 172.257812 265.191406 174.074219 267.429688 174.074219 C 269.664062 174.074219 271.226562 172.289062 271.226562 170.101562 Z M 261.523438 170.101562 L 261.523438 170.070312 C 261.523438 166.902344 263.96875 164.246094 267.429688 164.246094 C 270.886719 164.246094 273.300781 166.867188 273.300781 170.035156 L 273.300781 170.070312 C 273.300781 173.238281 270.855469 175.894531 267.398438 175.894531 C 263.9375 175.894531 261.523438 173.269531 261.523438 170.101562 "/>
<g clip-path="url(#clip3)" clip-rule="nonzero">
<path style=" stroke:none;fill-rule:nonzero;fill:rgb(16.078186%,23.529053%,52.548218%);fill-opacity:1;" d="M 275.691406 164.4375 L 277.671875 164.4375 L 277.671875 173.898438 L 283.589844 173.898438 L 283.589844 175.699219 L 275.691406 175.699219 L 275.691406 164.4375 "/>
</g>
</g>
</svg>
